<svg height="26.604" viewBox="0 0 250 26.604" width="250" xmlns="http://www.w3.org/2000/svg" xmlns:xlink="http://www.w3.org/1999/xlink"><clipPath id="a"><path d="m0 0h20.579v25.72h-20.579z"/></clipPath><clipPath id="b"><path d="m0 0h22.983v26.6h-22.983z"/></clipPath><g transform="translate(0 .443)"><path d="m0 0h20.579v25.72h-20.579z" fill="none"/><g clip-path="url(#a)"><path d="m11.327 25.72h-11.327v-25.72h10.851a9.273 9.273 0 0 1 6.665 2.277 5.761 5.761 0 0 1 1.642 4.115v.076a6.107 6.107 0 0 1 -1.271 3.9 7.147 7.147 0 0 1 -2.773 2.054 9.082 9.082 0 0 1 3.866 2.125 5.579 5.579 0 0 1 1.6 4.081v.072a6.191 6.191 0 0 1 -2.537 5.163 11.2 11.2 0 0 1 -6.716 1.857zm-8.488-11.686v9.078h8.561a7.775 7.775 0 0 0 4.58-1.222 4.013 4.013 0 0 0 1.684-3.372v-.073c0-2.845-2.406-4.411-6.774-4.411zm0-11.425v8.854h7.542a7.044 7.044 0 0 0 4.229-1.163 4.1 4.1 0 0 0 1.635-3.427v-.073c0-2.623-2.11-4.189-5.645-4.189z" fill="#fefefe"/></g><path d="m2.878 25.721h-2.878v-25.721h10.965a10.055 10.055 0 0 1 7.246 2.572 7.107 7.107 0 0 1 1.967 5.071v.075a6.954 6.954 0 0 1 -1.958 5.069 9.2 9.2 0 0 1 -4.961 2.423l7.831 10.508h-3.536l-7.393-9.993h-7.283v9.995zm0-23.038v10.435h7.83a7.558 7.558 0 0 0 4.713-1.405 4.759 4.759 0 0 0 1.843-3.886v-.074c0-3.175-2.437-5.071-6.519-5.071h-7.867z" fill="#fefefe" transform="translate(28.116 .001)"/></g><path d="m2.953 25.907h-2.953l11.621-25.907h2.7l11.615 25.9h-3.1l-2.988-6.8h-13.874l-3.021 6.8zm9.979-22.526-5.832 13.119h11.624z" fill="#fefefe" transform="translate(53.908 .258)"/><g transform="translate(83.974)"><path d="m0 0h22.983v26.6h-22.983z" fill="none"/><g clip-path="url(#b)"><path d="m0 13.377v-.077c0-7.274 5.39-13.3 12.9-13.3a13.206 13.206 0 0 1 9.943 4.079l-1.972 2.131a11.042 11.042 0 0 0 -8.012-3.526c-5.647 0-9.871 4.628-9.871 10.546v.07c0 5.953 4.263 10.62 9.871 10.62 3.5 0 5.79-1.36 8.231-3.711l1.893 1.874a13.215 13.215 0 0 1 -10.2 4.519c-7.354-.002-12.783-5.838-12.783-13.225" fill="#fefefe"/></g></g><g fill="#fefefe"><path d="m0 0v25.72h18.614v-2.647h-15.739v-9h13.916v-2.646h-13.916v-8.784h15.554v-2.643z" transform="translate(115.168 .444)"/><path d="m21.382 0-9.1 22.156-9.076-22.156h-3.206l10.966 25.9h2.549l10.961-25.9z" transform="translate(139.118 .444)"/><path d="m21.38 0-9.107 22.156-9.073-22.156h-3.2l10.961 25.9h2.549l10.966-25.9z" transform="translate(151.101 .444)"/><path d="m0 0v25.72h18.612v-2.647h-15.734v-9h13.913v-2.646h-13.913v-8.784h15.551v-2.643z" transform="translate(182.337 .444)"/><path d="m0 0v25.72h17.231v-2.683h-14.353v-23.037z" transform="translate(208.405 .444)"/><path d="m0 0v25.72h17.228v-2.683h-14.35v-23.037z" transform="translate(232.772 .444)"/></g></svg>